<?xml version="1.0" standalone="no"?>
<!DOCTYPE svg PUBLIC "-//W3C//DTD SVG 20010904//EN"
 "http://www.w3.org/TR/2001/REC-SVG-20010904/DTD/svg10.dtd">
<svg version="1.0" xmlns="http://www.w3.org/2000/svg"
 width="398.000000pt" height="354.000000pt" viewBox="0 0 398.000000 354.000000"
 preserveAspectRatio="xMidYMid meet">

<g transform="translate(0.000000,354.000000) scale(0.100000,-0.100000)"
fill="#000000" stroke="none">
<path d="M2111 2534 c-158 -42 -276 -168 -316 -336 -19 -82 -19 -266 0 -338
19 -72 77 -189 108 -218 l25 -23 36 32 c37 32 37 32 18 53 -69 75 -106 180
-106 296 0 98 13 150 52 208 59 88 146 130 287 139 155 9 264 -24 342 -105
116 -118 107 -354 -18 -514 l-29 -36 39 -32 40 -31 32 43 c78 106 113 225 112
378 -3 262 -133 442 -351 489 -72 15 -205 13 -271 -5z"/>
<path d="M1290 2059 c0 -8 295 -1077 326 -1181 5 -16 23 -18 192 -18 l187 0
128 457 c71 252 131 460 133 462 12 12 31 -46 139 -434 65 -231 122 -435 127
-452 l9 -33 187 0 187 0 164 593 c91 325 167 598 169 605 3 9 -25 12 -122 12
l-125 0 -15 -52 c-9 -29 -74 -264 -146 -523 -73 -258 -133 -472 -136 -474 -2
-2 -6 -2 -9 1 -3 3 -64 214 -136 469 -71 255 -132 472 -135 482 -5 16 -19 17
-152 15 l-146 -3 -131 -465 c-145 -515 -142 -507 -154 -494 -4 5 -72 242 -151
527 l-144 517 -123 0 c-83 0 -123 -4 -123 -11z"/>
</g>
</svg>
